<?xml version="1.0" encoding="utf-8"?>
<!-- Generator: Adobe Illustrator 23.0.3, SVG Export Plug-In . SVG Version: 6.00 Build 0)  -->
<svg version="1.1" id="Lag_1" xmlns="http://www.w3.org/2000/svg" xmlns:xlink="http://www.w3.org/1999/xlink" x="0px" y="0px"
	 viewBox="0 0 43.1 43.1" style="enable-background:new 0 0 43.1 43.1;" xml:space="preserve">
<style type="text/css">
	.st0{fill:none;}
	.st1{fill:#DE837C;}
	.st2{fill:none;stroke:#E18C82;stroke-width:4;stroke-linejoin:round;}
</style>
<g>
	<rect x="0" y="0.1" class="st0" width="43" height="43"/>
	<rect x="14" y="14.1" class="st0" width="16" height="16"/>
	<g id="Down_arrow" transform="translate(30 30) rotate(180)">
		<path id="Path_10" class="st1" d="M16,7.9l-1.5-1.5L9,12V-0.1H7V12L1.5,6.5L0,7.9l8,8L16,7.9z"/>
	</g>
	<g id="Rectangle_1479">
		<path class="st0" d="M5,0.1h33c2.8,0,5,2.2,5,5v33c0,2.8-2.2,5-5,5H5c-2.8,0-5-2.2-5-5v-33C0,2.3,2.2,0.1,5,0.1z"/>
		<path class="st2" d="M5,2.1h33c1.7,0,3,1.3,3,3v33c0,1.7-1.3,3-3,3H5c-1.7,0-3-1.3-3-3v-33C2,3.4,3.3,2.1,5,2.1z"/>
	</g>
</g>
</svg>
