<?xml version="1.0" encoding="utf-8"?>
<!-- Generator: Adobe Illustrator 23.0.3, SVG Export Plug-In . SVG Version: 6.00 Build 0)  -->
<svg version="1.1" id="Lag_1" xmlns="http://www.w3.org/2000/svg" xmlns:xlink="http://www.w3.org/1999/xlink" x="0px" y="0px"
	 viewBox="0 0 40 40" style="enable-background:new 0 0 40 40;" xml:space="preserve">
<style type="text/css">
	.st0{fill:none;}
	.st1{fill-rule:evenodd;clip-rule:evenodd;fill:#EA847C;}
</style>
<rect y="0" class="st0" width="40" height="40"/>
<path id="Path_1" class="st1" d="M37.5,35H24.9c0,2.8-2.2,5-5,5s-5-2.2-5-5H2.4c-1.1,0-2-0.7-2.3-1.8c-0.3-1,0-2.1,0.8-2.8
	c2.5-1.9,4-4.9,4-8V15c0-8.3,6.7-15,15-15s15,6.7,15,15v7.5c0,3.1,1.5,6.1,4,8c0.8,0.6,1.1,1.8,0.8,2.8C39.4,34.3,38.5,35,37.5,35z"
	/>
</svg>
