<?xml version="1.0" encoding="utf-8"?>
<!-- Generator: Adobe Illustrator 23.0.3, SVG Export Plug-In . SVG Version: 6.00 Build 0)  -->
<svg version="1.1" id="Lag_1" xmlns="http://www.w3.org/2000/svg" xmlns:xlink="http://www.w3.org/1999/xlink" x="0px" y="0px"
	 viewBox="0 0 67 46" style="enable-background:new 0 0 67 46;" xml:space="preserve">
<style type="text/css">
	.st0{fill:none;}
	.st1{fill:none;stroke:#F58E81;stroke-width:3;stroke-linejoin:round;}
</style>
<g id="Group_1611" transform="translate(-277 -367)">
	<g id="Rectangle_1482" transform="translate(314 383)">
		<path class="st0" d="M12,0h6c6.6,0,12,5.4,12,12v16c0,1.1-0.9,2-2,2H12C5.4,30,0,24.6,0,18v-6C0,5.4,5.4,0,12,0z"/>
		<path class="st1" d="M12,1.5h6c5.8,0,10.5,4.7,10.5,10.5v16c0,0.3-0.2,0.5-0.5,0.5H12C6.2,28.5,1.5,23.8,1.5,18v-6
			C1.5,6.2,6.2,1.5,12,1.5z"/>
	</g>
	<g id="Rectangle_1483" transform="translate(277 367)">
		<path class="st0" d="M12,0h6c6.6,0,12,5.4,12,12v6c0,6.6-5.4,12-12,12H1c-0.6,0-1-0.4-1-1V12C0,5.4,5.4,0,12,0z"/>
		<path class="st1" d="M12,1.5h6c5.8,0,10.5,4.7,10.5,10.5v6c0,5.8-4.7,10.5-10.5,10.5H2c-0.3,0-0.5-0.2-0.5-0.5V12
			C1.5,6.2,6.2,1.5,12,1.5z"/>
	</g>
</g>
</svg>
