<?xml version="1.0" encoding="utf-8"?>
<!-- Generator: Adobe Illustrator 23.0.3, SVG Export Plug-In . SVG Version: 6.00 Build 0)  -->
<svg version="1.1" id="Lag_1" xmlns="http://www.w3.org/2000/svg" xmlns:xlink="http://www.w3.org/1999/xlink" x="0px" y="0px"
	 viewBox="0 0 109.9 109.9" style="enable-background:new 0 0 109.9 109.9;" xml:space="preserve">
<style type="text/css">
	.st0{clip-path:url(#SVGID_2_);}
	.st1{clip-path:url(#SVGID_4_);}
	.st2{fill:#EA847C;}
	.st3{fill:none;}
	.st4{fill:none;stroke:#F58E81;stroke-width:4;stroke-linejoin:round;}
</style>
<g>
	<defs>
		<rect id="SVGID_1_" x="35" y="24" width="43" height="43"/>
	</defs>
	<clipPath id="SVGID_2_">
		<use xlink:href="#SVGID_1_"  style="overflow:visible;"/>
	</clipPath>
	<g id="Component_5_2" transform="translate(50 618)" class="st0">
		<g>
			<defs>
				<rect id="SVGID_3_" x="-1" y="-580" width="16" height="16"/>
			</defs>
			<clipPath id="SVGID_4_">
				<use xlink:href="#SVGID_3_"  style="overflow:visible;"/>
			</clipPath>
			<g id="Down_arrow" transform="translate(30 30) rotate(180)" class="st1">
				<path id="Path_10" class="st2" d="M31,602l-1.5-1.5l-5.5,5.5V594H22v12.1l-5.5-5.5L15,602l8,8L31,602z"/>
			</g>
		</g>
		<g id="Rectangle_1479">
			<path class="st3" d="M-10-594h33c2.8,0,5,2.2,5,5v33c0,2.8-2.2,5-5,5h-33c-2.8,0-5-2.2-5-5v-33C-15-591.8-12.8-594-10-594z"/>
			<path class="st4" d="M-10-592h33c1.7,0,3,1.3,3,3v33c0,1.7-1.3,3-3,3h-33c-1.7,0-3-1.3-3-3v-33C-13-590.7-11.7-592-10-592z"/>
		</g>
	</g>
</g>
</svg>
