<?xml version="1.0" encoding="utf-8"?>
<!-- Generator: Adobe Illustrator 23.0.3, SVG Export Plug-In . SVG Version: 6.00 Build 0)  -->
<svg version="1.1" id="Lag_1" xmlns="http://www.w3.org/2000/svg" xmlns:xlink="http://www.w3.org/1999/xlink" x="0px" y="0px"
	 viewBox="0 0 50.7 35.2" style="enable-background:new 0 0 50.7 35.2;" xml:space="preserve">
<style type="text/css">
	.st0{fill:none;}
	.st1{fill:#EA847C;}
</style>
<rect y="10.7" class="st0" width="24.6" height="24.6"/>
<g id="Profile" transform="translate(162 382.43)">
	<path id="Union_1" class="st1" d="M-162-347.2v-3.1c0-3.4,5.5-6.1,12.3-6.1c6.8,0,12.3,2.8,12.3,6.1v3.1H-162z M-155.9-365.6
		c0-3.4,2.7-6.1,6.1-6.1s6.1,2.7,6.1,6.1c0,3.4-2.7,6.1-6.1,6.1C-153.1-359.5-155.9-362.2-155.9-365.6z"/>
</g>
<rect x="26.2" y="0" class="st0" width="24.6" height="24.6"/>
<g id="Profile-2" transform="translate(188.176 371.753)">
	<path id="Union_1-2" class="st1" d="M-162-347.2v-3.1c0-3.4,5.5-6.1,12.3-6.1c6.8,0,12.3,2.8,12.3,6.1v3.1H-162z M-155.9-365.6
		c0-3.4,2.7-6.1,6.1-6.1s6.1,2.7,6.1,6.1c0,3.4-2.7,6.1-6.1,6.1C-153.1-359.5-155.9-362.2-155.9-365.6z"/>
</g>
</svg>
