<?xml version="1.0" encoding="utf-8"?>
<!-- Generator: Adobe Illustrator 23.0.3, SVG Export Plug-In . SVG Version: 6.00 Build 0)  -->
<svg version="1.1" id="Lag_1" xmlns="http://www.w3.org/2000/svg" xmlns:xlink="http://www.w3.org/1999/xlink" x="0px" y="0px"
	 viewBox="0 0 51 36.9" style="enable-background:new 0 0 51 36.9;" xml:space="preserve">
<style type="text/css">
	.st0{fill:none;}
	.st1{fill:#DE837C;}
</style>
<g>
	<rect x="0.3" y="11.5" class="st0" width="24.6" height="24.6"/>
	<path class="st1" d="M0.3,36V33c0-3.4,5.5-6.1,12.3-6.1s12.3,2.8,12.3,6.1V36H0.3z"/>
	<path class="st1" d="M6.4,17.6c0-3.4,2.7-6.1,6.1-6.1s6.1,2.7,6.1,6.1c0,3.4-2.7,6.1-6.1,6.1C9.2,23.8,6.4,21,6.4,17.6z"/>
	<rect x="26.5" y="0.8" class="st0" width="24.6" height="24.6"/>
	<path class="st1" d="M26.5,25.4v-3.1c0-3.4,5.5-6.1,12.3-6.1S51,18.9,51,22.3v3.1H26.5z"/>
	<path class="st1" d="M32.6,6.9c0-3.4,2.7-6.1,6.1-6.1c3.4,0,6.1,2.7,6.1,6.1c0,3.4-2.7,6.1-6.1,6.1C35.3,13.1,32.6,10.3,32.6,6.9z"
		/>
</g>
</svg>
