<?xml version="1.0" encoding="utf-8"?>
<!-- Generator: Adobe Illustrator 23.0.3, SVG Export Plug-In . SVG Version: 6.00 Build 0)  -->
<svg version="1.1" id="Lag_1" xmlns="http://www.w3.org/2000/svg" xmlns:xlink="http://www.w3.org/1999/xlink" x="0px" y="0px"
	 viewBox="0 0 109.9 109.9" style="enable-background:new 0 0 109.9 109.9;" xml:space="preserve">
<style type="text/css">
	.st0{fill:none;}
	.st1{fill:#EA847C;}
</style>
<rect y="0" class="st0" width="109.9" height="109.9"/>
<path id="Path_146" class="st1" d="M54.6,32.4C45.4,32.4,38,39.9,38,49s7.4,16.6,16.6,16.6c9.1,0,16.6-7.4,16.6-16.6c0,0,0,0,0,0
	C71.1,39.9,63.7,32.5,54.6,32.4z M54.4,59.9c-1.3,0-2.3-1-2.3-2.3c0-1.3,1-2.3,2.3-2.3s2.3,1,2.3,2.3c0,1.2-1,2.3-2.2,2.3
	C54.5,59.9,54.4,59.9,54.4,59.9z M58.9,47L57,49c-0.4,0.4-0.7,0.9-0.7,1.5c0,1.1-0.9,2-2,2c-1.1,0-1.9-0.8-2-1.8c0-0.1,0-0.1,0-0.2
	c0-1.1,0.4-2.2,1.3-3l1.5-1.8c0.6-0.6,1.1-1.4,1.2-2.3c0-1-0.7-1.8-1.6-1.8c-0.1,0-0.1,0-0.2,0c-0.9,0-1.8,0.6-2,1.5
	c-0.4,0.7-1.2,1.2-2,1.2c-1,0-1.8-0.7-1.8-1.6c0-0.1,0-0.1,0-0.2c0-0.3,0-0.6,0.2-0.8c0.7-2,2.6-3.5,5.6-3.5c3.5,0,5.8,2.3,5.8,5.3
	C60.3,44.7,59.8,46,58.9,47L58.9,47z"/>
</svg>
